<?xml version="1.0" encoding="UTF-8"?>
<svg id="Shapes" xmlns="http://www.w3.org/2000/svg" viewBox="0 0 1080 1080">
  <defs>
    <style>
      .cls-1 {
        fill: #fff;
      }
    </style>
  </defs>
  <rect class="cls-1" x="79.08" y="79.08" width="381.84" height="381.84" transform="translate(-111.84 270) rotate(-45)"/>
  <rect class="cls-1" x="349.08" y="349.08" width="381.84" height="381.84" transform="translate(-223.68 540) rotate(-45)"/>
  <rect class="cls-1" x="619.08" y="79.08" width="381.84" height="381.84" transform="translate(46.32 651.84) rotate(-45)"/>
  <rect class="cls-1" x="79.08" y="619.08" width="381.84" height="381.84" transform="translate(-493.68 428.16) rotate(-45)"/>
  <rect class="cls-1" x="619.08" y="619.08" width="381.84" height="381.84" transform="translate(-335.51 810) rotate(-45)"/>
  <polygon class="cls-1" points="540 270 810 0 270 0 540 270"/>
  <polygon class="cls-1" points="810 0 1080 0 1080 270 810 0"/>
  <polygon class="cls-1" points="0 270 0 0 270 0 0 270"/>
  <polygon class="cls-1" points="540 810 270 1080 810 1080 540 810"/>
  <polygon class="cls-1" points="270 540 0 270 0 810 270 540"/>
  <polygon class="cls-1" points="810 540 1080 810 1080 270 810 540"/>
  <polygon class="cls-1" points="270 1080 0 1080 0 810 270 1080"/>
  <polygon class="cls-1" points="1080 810 1080 1080 810 1080 1080 810"/>
</svg>
